<?xml version="1.0" standalone="no"?>
<!DOCTYPE svg PUBLIC "-//W3C//DTD SVG 20010904//EN"
 "http://www.w3.org/TR/2001/REC-SVG-20010904/DTD/svg10.dtd">
<svg version="1.0" xmlns="http://www.w3.org/2000/svg"
 width="208.000000pt" height="208.000000pt" viewBox="0 0 208.000000 208.000000"
 preserveAspectRatio="xMidYMid meet">

<g transform="translate(0.000000,208.000000) scale(0.100000,-0.100000)"
fill="#000000" stroke="none">
<path d="M318 1352 c-158 -53 -285 -99 -282 -103 2 -4 43 -31 90 -60 l85 -52
-5 -46 c-3 -25 -8 -99 -11 -163 l-7 -117 25 -6 c14 -4 35 -4 47 0 21 7 21 10
14 146 -4 85 -3 139 3 139 5 0 87 -47 182 -105 95 -58 175 -105 177 -105 5 0
443 267 538 328 l70 44 -33 14 c-78 33 -557 184 -580 183 -14 0 -155 -44 -313
-97z m360 -85 c18 -21 0 -34 -58 -40 -31 -4 -125 -30 -210 -59 l-155 -53 4
-148 3 -149 -23 4 -24 3 3 130 c1 72 5 140 7 152 4 18 32 30 174 78 97 32 176
64 186 75 21 23 77 27 93 7z"/>
<path d="M1800 1430 c-11 -11 -20 -26 -20 -33 0 -50 -229 -190 -415 -253 -81
-28 -119 -47 -144 -71 -31 -31 -33 -37 -29 -86 3 -28 9 -61 13 -72 8 -19 7
-19 -11 -2 -14 13 -19 32 -19 75 0 31 4 65 9 75 8 17 5 17 -35 -4 -57 -29 -69
-46 -66 -93 3 -53 36 -77 113 -82 145 -9 169 -26 204 -143 11 -37 30 -76 42
-88 24 -21 88 -36 104 -25 21 15 -3 105 -40 152 -19 24 -39 97 -31 110 20 32
364 -14 454 -59 23 -12 50 -20 59 -17 60 19 81 195 43 347 -55 217 -160 340
-231 269z m-15 -360 c9 -30 32 -85 51 -122 19 -37 34 -70 34 -73 0 -2 -12 0
-27 6 -48 18 -164 38 -265 44 -86 6 -100 10 -123 32 -29 30 -48 91 -39 128 8
34 46 63 150 118 49 25 112 61 139 80 l50 34 6 -96 c4 -53 14 -121 24 -151z
m60 96 c22 -37 30 -63 33 -112 4 -66 -3 -114 -16 -114 -17 0 -72 193 -72 253
0 40 19 30 55 -27z m-681 -242 c3 -8 2 -14 -3 -14 -12 0 -21 38 -20 85 l1 40
8 -49 c5 -26 11 -54 14 -62z m-48 69 c0 -16 3 -41 7 -58 l7 -30 -15 25 c-16
27 -20 90 -6 90 4 0 8 -12 7 -27z"/>
<path d="M347 987 c-4 -17 -9 -64 -13 -102 l-6 -71 66 -62 c64 -60 148 -112
181 -112 8 0 15 -4 15 -10 0 -5 20 -10 45 -10 25 0 45 5 45 10 0 6 7 10 16 10
35 0 111 47 177 110 l69 65 -6 83 c-11 136 -1 134 -160 37 -77 -46 -142 -82
-145 -81 -3 2 -58 35 -122 74 -170 102 -156 97 -162 59z"/>
</g>
</svg>
